<?xml version="1.0" encoding="utf-8"?>
<!-- Generator: Adobe Illustrator 24.2.1, SVG Export Plug-In . SVG Version: 6.00 Build 0)  -->
<svg version="1.1" id="Layer_1" xmlns="http://www.w3.org/2000/svg" xmlns:xlink="http://www.w3.org/1999/xlink" x="0px" y="0px"
	 viewBox="0 0 853.42 288" style="enable-background:new 0 0 853.42 288;" xml:space="preserve">
<style type="text/css">
	.st0{fill:#1E202A;}
	.st1{fill:#4C6287;}
	.st2{fill:url(#SVGID_1_);}
	.st3{fill:url(#SVGID_2_);}
	.st4{fill:url(#SVGID_3_);}
	.st5{fill:url(#SVGID_4_);}
	.st6{fill:url(#SVGID_5_);}
	.st7{fill:url(#SVGID_6_);}
	.st8{fill:url(#SVGID_7_);}
	.st9{fill:url(#SVGID_8_);}
	.st10{fill:url(#SVGID_9_);}
	.st11{fill:url(#SVGID_10_);}
</style>
<g>
	<g>
		<path class="st1" d="M285.24,151.66h3.08v11.85c-1.42,1.27-3.1,2.25-5.04,2.93c-1.94,0.68-3.98,1.02-6.12,1.02
			c-3.04,0-5.78-0.68-8.21-2.04c-2.43-1.36-4.34-3.25-5.73-5.66c-1.39-2.41-2.08-5.11-2.08-8.1c0-2.99,0.69-5.69,2.08-8.1
			s3.3-4.3,5.73-5.66c2.43-1.36,5.18-2.04,8.25-2.04c2.32,0,4.44,0.38,6.39,1.13c1.94,0.75,3.58,1.87,4.91,3.35l-2,2.09
			c-2.4-2.43-5.46-3.64-9.17-3.64c-2.46,0-4.68,0.55-6.67,1.66c-1.98,1.11-3.54,2.65-4.67,4.62c-1.13,1.97-1.69,4.16-1.69,6.59
			c0,2.43,0.56,4.62,1.69,6.57c1.13,1.95,2.68,3.49,4.65,4.62s4.18,1.69,6.65,1.69c3.13,0,5.78-0.8,7.95-2.4V151.66z"/>
		<path class="st1" d="M307.4,164c-2.2-2.31-3.3-5.67-3.3-10.07v-17.8h3.21v17.66c0,3.61,0.8,6.3,2.39,8.08
			c1.59,1.78,3.89,2.66,6.91,2.66c3.04,0,5.36-0.89,6.95-2.66c1.59-1.78,2.39-4.47,2.39-8.08v-17.66h3.13v17.8
			c0,4.41-1.09,7.77-3.28,10.07c-2.19,2.31-5.25,3.46-9.19,3.46C312.67,167.46,309.6,166.31,307.4,164z"/>
		<path class="st1" d="M364.13,158.9h-16.94l-3.65,8.3h-3.34l13.9-31.06h3.17l13.9,31.06h-3.39L364.13,158.9z M362.95,156.23
			l-7.3-16.69l-7.3,16.69H362.95z"/>
		<path class="st1" d="M403.91,167.19l-6.95-9.99c-0.78,0.09-1.59,0.13-2.43,0.13h-8.17v9.85h-3.21v-31.06h11.38
			c3.88,0,6.92,0.95,9.12,2.84c2.2,1.89,3.3,4.5,3.3,7.81c0,2.43-0.6,4.48-1.8,6.15c-1.2,1.67-2.92,2.88-5.15,3.62l7.43,10.65
			H403.91z M401.35,152.51c1.59-1.36,2.39-3.27,2.39-5.73c0-2.51-0.8-4.44-2.39-5.79c-1.59-1.35-3.9-2.02-6.91-2.02h-8.08v15.58
			h8.08C397.46,154.55,399.76,153.87,401.35,152.51z"/>
		<path class="st1" d="M421.51,136.13h12.38c3.21,0,6.05,0.66,8.51,1.97c2.46,1.32,4.37,3.15,5.73,5.5
			c1.36,2.35,2.04,5.04,2.04,8.05s-0.68,5.7-2.04,8.05c-1.36,2.35-3.27,4.19-5.73,5.5c-2.46,1.32-5.3,1.97-8.51,1.97h-12.38V136.13z
			 M433.71,164.35c2.66,0,5-0.54,6.99-1.62s3.55-2.57,4.65-4.48c1.1-1.91,1.65-4.1,1.65-6.59s-0.55-4.68-1.65-6.59
			c-1.1-1.91-2.65-3.4-4.65-4.48c-2-1.08-4.33-1.62-6.99-1.62h-8.99v25.38H433.71z"/>
		<path class="st1" d="M464.34,136.13h3.21v31.06h-3.21V136.13z"/>
		<path class="st1" d="M503.47,158.9h-16.94l-3.65,8.3h-3.34l13.9-31.06h3.17l13.9,31.06h-3.39L503.47,158.9z M502.3,156.23
			l-7.3-16.69l-7.3,16.69H502.3z"/>
		<path class="st1" d="M547.91,136.13v31.06h-2.65l-19.55-25.21v25.21h-3.21v-31.06h2.65l19.59,25.21v-25.21H547.91z"/>
		<path class="st1" d="M593.34,138.97h-10.69v-2.84h24.59v2.84h-10.69v28.22h-3.21V138.97z"/>
		<path class="st1" d="M640.08,167.19l-6.95-9.99c-0.78,0.09-1.59,0.13-2.43,0.13h-8.17v9.85h-3.21v-31.06h11.38
			c3.88,0,6.92,0.95,9.12,2.84c2.2,1.89,3.3,4.5,3.3,7.81c0,2.43-0.6,4.48-1.8,6.15c-1.2,1.67-2.92,2.88-5.15,3.62l7.43,10.65
			H640.08z M637.52,152.51c1.59-1.36,2.39-3.27,2.39-5.73c0-2.51-0.8-4.44-2.39-5.79c-1.59-1.35-3.9-2.02-6.91-2.02h-8.08v15.58
			h8.08C633.63,154.55,635.93,153.87,637.52,152.51z"/>
		<path class="st1" d="M676.74,158.9H659.8l-3.65,8.3h-3.34l13.9-31.06h3.17l13.9,31.06h-3.39L676.74,158.9z M675.57,156.23
			l-7.3-16.69l-7.3,16.69H675.57z"/>
		<path class="st1" d="M695.77,136.13h12.38c3.21,0,6.05,0.66,8.51,1.97c2.46,1.32,4.37,3.15,5.73,5.5
			c1.36,2.35,2.04,5.04,2.04,8.05s-0.68,5.7-2.04,8.05c-1.36,2.35-3.27,4.19-5.73,5.5c-2.46,1.32-5.3,1.97-8.51,1.97h-12.38V136.13z
			 M707.98,164.35c2.66,0,5-0.54,6.99-1.62s3.55-2.57,4.65-4.48c1.1-1.91,1.65-4.1,1.65-6.59s-0.55-4.68-1.65-6.59
			c-1.1-1.91-2.65-3.4-4.65-4.48c-2-1.08-4.33-1.62-6.99-1.62h-8.99v25.38H707.98z"/>
		<path class="st1" d="M738.6,136.13h3.21v31.06h-3.21V136.13z"/>
		<path class="st1" d="M784.08,136.13v31.06h-2.65l-19.55-25.21v25.21h-3.21v-31.06h2.65l19.59,25.21v-25.21H784.08z"/>
		<path class="st1" d="M822.35,151.66h3.08v11.85c-1.42,1.27-3.1,2.25-5.04,2.93c-1.94,0.68-3.98,1.02-6.13,1.02
			c-3.04,0-5.78-0.68-8.21-2.04c-2.43-1.36-4.34-3.25-5.73-5.66c-1.39-2.41-2.08-5.11-2.08-8.1c0-2.99,0.7-5.69,2.08-8.1
			s3.3-4.3,5.73-5.66c2.43-1.36,5.18-2.04,8.25-2.04c2.32,0,4.44,0.38,6.38,1.13c1.94,0.75,3.58,1.87,4.91,3.35l-2,2.09
			c-2.4-2.43-5.46-3.64-9.17-3.64c-2.46,0-4.68,0.55-6.67,1.66s-3.54,2.65-4.67,4.62c-1.13,1.97-1.69,4.16-1.69,6.59
			c0,2.43,0.56,4.62,1.69,6.57c1.13,1.95,2.68,3.49,4.65,4.62c1.97,1.12,4.18,1.69,6.65,1.69c3.13,0,5.78-0.8,7.95-2.4V151.66z"/>
	</g>
	<g>
		<linearGradient id="SVGID_1_" gradientUnits="userSpaceOnUse" x1="28.0453" y1="175.6724" x2="228.8881" y2="175.6724">
			<stop  offset="0" style="stop-color:#3C84C5"/>
			<stop  offset="0.0258" style="stop-color:#3475B5"/>
			<stop  offset="0.0719" style="stop-color:#2A619F"/>
			<stop  offset="0.1263" style="stop-color:#22518E"/>
			<stop  offset="0.1936" style="stop-color:#1C4683"/>
			<stop  offset="0.2881" style="stop-color:#19407C"/>
			<stop  offset="0.5503" style="stop-color:#183E7A"/>
			<stop  offset="1" style="stop-color:#3C84C5"/>
		</linearGradient>
		<path class="st2" d="M62.85,120.98c0,0-0.18,68.64,62.71,105.67c0,0,87.74-58.33,102.45-141c0,0,12.68,121.22-58.83,158.75
			l-41.59,21.3c0,0-98.98-34.98-99.55-104.78l16.93-21.11L62.85,120.98z"/>
		<g>
			<linearGradient id="SVGID_2_" gradientUnits="userSpaceOnUse" x1="125.0432" y1="131.0633" x2="228.0036" y2="131.0633">
				<stop  offset="0" style="stop-color:#3490CE"/>
				<stop  offset="0.1611" style="stop-color:#2B75B2"/>
				<stop  offset="0.3489" style="stop-color:#235D9A"/>
				<stop  offset="0.5457" style="stop-color:#1D4C88"/>
				<stop  offset="0.7554" style="stop-color:#19417D"/>
				<stop  offset="1" style="stop-color:#183E7A"/>
			</linearGradient>
			<path class="st3" d="M125.04,129.8l0.51,46.66c0,0,53.16-38.65,83.09-38.65c0,0,15.31-24.75,19.37-52.14
				c0,0-75.57,19.27-100.42,41.59L125.04,129.8z"/>
			<linearGradient id="SVGID_3_" gradientUnits="userSpaceOnUse" x1="28.1768" y1="193.0838" x2="170.2498" y2="193.0838">
				<stop  offset="0" style="stop-color:#3C84C5"/>
				<stop  offset="0.0114" style="stop-color:#3475B5"/>
				<stop  offset="0.0318" style="stop-color:#2A619F"/>
				<stop  offset="0.0559" style="stop-color:#22518E"/>
				<stop  offset="0.0856" style="stop-color:#1C4683"/>
				<stop  offset="0.1274" style="stop-color:#19407C"/>
				<stop  offset="0.2434" style="stop-color:#183E7A"/>
				<stop  offset="0.2681" style="stop-color:#1B4581"/>
				<stop  offset="0.3881" style="stop-color:#26629F"/>
				<stop  offset="0.5153" style="stop-color:#2E79B6"/>
				<stop  offset="0.6516" style="stop-color:#3489C6"/>
				<stop  offset="0.803" style="stop-color:#3893D0"/>
				<stop  offset="1" style="stop-color:#3996D3"/>
			</linearGradient>
			<path class="st4" d="M170.25,243.72l-42.66,21.98c0,0-91.94-30.99-99.42-99.84c0,0,6.15-21.56,34.29-45.39
				c0,0-1.93,92.06,102.04,122.23L170.25,243.72z"/>
			<linearGradient id="SVGID_4_" gradientUnits="userSpaceOnUse" x1="125.3631" y1="164.6929" x2="228.8307" y2="164.6929">
				<stop  offset="0" style="stop-color:#3490CE"/>
				<stop  offset="0.1987" style="stop-color:#328BC9"/>
				<stop  offset="0.4305" style="stop-color:#2E7DBB"/>
				<stop  offset="0.679" style="stop-color:#2667A4"/>
				<stop  offset="0.9375" style="stop-color:#1B4783"/>
				<stop  offset="1" style="stop-color:#183E7A"/>
			</linearGradient>
			<path class="st5" d="M228,85.67c0,0-8.05,73.85-102.39,140.8l-0.25,1.01c0,0,23.58,14.2,44.89,16.23
				c0,0,58.07-20.54,58.58-141.25L228,85.67z"/>
			<linearGradient id="SVGID_5_" gradientUnits="userSpaceOnUse" x1="42.3402" y1="104.8262" x2="224.1947" y2="4.4941">
				<stop  offset="0" style="stop-color:#3C84C5"/>
				<stop  offset="0.0469" style="stop-color:#3475B5"/>
				<stop  offset="0.1306" style="stop-color:#2A619F"/>
				<stop  offset="0.2295" style="stop-color:#22518E"/>
				<stop  offset="0.3519" style="stop-color:#1C4683"/>
				<stop  offset="0.5235" style="stop-color:#19407C"/>
				<stop  offset="1" style="stop-color:#183E7A"/>
			</linearGradient>
			<path class="st6" d="M235.51,55.55c0,0-67.71-40.32-207.7,0l0.37,110.31c0,0,31.59-84.45,198.96-108.03L235.51,55.55z"/>
		</g>
	</g>
</g>
</svg>
